<svg width="19" height="15" viewBox="0 0 19 15" fill="none" xmlns="http://www.w3.org/2000/svg">
<path d="M18.7791 3.38252C18.7803 3.17574 18.728 2.97217 18.6273 2.79154C18.5267 2.61091 18.381 2.45935 18.2045 2.35155C18.028 2.24376 17.8267 2.18338 17.62 2.17628C17.4133 2.16918 17.2083 2.21559 17.0248 2.31102C16.8414 2.40645 16.6857 2.54765 16.5728 2.72095C16.46 2.89424 16.3939 3.09374 16.3808 3.30011C16.3678 3.50649 16.4083 3.71273 16.4984 3.89885C16.5885 4.08496 16.7252 4.24464 16.8952 4.3624C16.0976 5.03417 13.0386 7.62377 13.0386 7.62377C13.0386 7.62377 12.8436 7.83145 12.6554 7.7905C12.4536 7.7476 12.32 7.41609 12.32 7.41609C12.32 7.41609 10.1465 2.90184 10.0294 2.66589C10.3244 2.57394 10.5765 2.37922 10.74 2.11714C10.9035 1.85507 10.9675 1.54303 10.9204 1.23776C10.8733 0.932494 10.7182 0.654259 10.4833 0.453642C10.2484 0.253026 9.94929 0.143348 9.64037 0.144545C9.33137 0.143111 9.03212 0.252622 8.79705 0.45316C8.56198 0.653698 8.40671 0.931939 8.35947 1.23728C8.31224 1.54261 8.37618 1.85476 8.53967 2.11694C8.70316 2.37912 8.95534 2.57391 9.25033 2.66589C8.48584 4.21809 6.95979 7.41609 6.95979 7.41609C6.95979 7.41609 6.8262 7.7476 6.62435 7.7905C6.4225 7.8334 6.24113 7.62377 6.24113 7.62377C6.24113 7.62377 3.1822 5.03417 2.38456 4.3624C2.6315 4.19169 2.80609 3.93524 2.87438 3.64293C2.94266 3.35063 2.89976 3.04337 2.754 2.78095C2.60825 2.51853 2.37008 2.31971 2.08582 2.22316C1.80156 2.12662 1.49155 2.13926 1.2161 2.25863C0.940649 2.378 0.719461 2.59556 0.595566 2.86898C0.471672 3.1424 0.453931 3.45212 0.545799 3.7379C0.637667 4.02367 0.832571 4.26505 1.09259 4.41508C1.35261 4.56511 1.65916 4.61306 1.95258 4.54959C1.95258 4.54959 2.57665 6.83304 3.05446 8.82789C3.37332 10.267 3.8404 12.6674 3.8443 12.6762C4.16901 13.8189 6.96466 14.3152 9.63842 14.3054C12.3083 14.3152 15.1078 13.8179 15.4326 12.6762C15.4326 12.6674 15.8421 10.267 16.199 8.82789C16.6865 6.83304 17.3243 4.54959 17.3243 4.54959C17.499 4.58761 17.6801 4.58599 17.8542 4.54485C18.0282 4.50372 18.1909 4.42411 18.3302 4.31189C18.4694 4.19967 18.5818 4.05767 18.659 3.89634C18.7362 3.73501 18.7762 3.55844 18.7762 3.37959L18.7791 3.38252ZM14.7246 12.4646C14.7246 13.153 12.4467 13.7107 9.63745 13.7107C6.82814 13.7107 4.55028 13.153 4.55028 12.4646C4.55028 11.7763 6.82814 11.2196 9.63745 11.2196C12.4467 11.2196 14.7246 11.7773 14.7246 12.4646ZM14.8368 3.4849C14.8606 3.34211 14.8561 3.19603 14.8234 3.05501C14.7907 2.91398 14.7305 2.78079 14.6463 2.66306C14.562 2.54532 14.4554 2.44536 14.3325 2.36889C14.2096 2.29241 14.0727 2.24093 13.9299 2.2174V2.2174C13.6704 2.17207 13.4033 2.22151 13.1773 2.35672C12.9512 2.49192 12.7813 2.70388 12.6985 2.95391C12.6158 3.20394 12.6257 3.47539 12.7264 3.71874C12.8272 3.96209 13.012 4.16112 13.2473 4.27952C13.1976 4.34874 12.8095 4.89767 12.3492 5.54702L12.8797 6.65072L14.2332 5.50607C14.1113 5.09072 13.9962 4.70169 13.9016 4.38579C14.1336 4.35426 14.3494 4.24933 14.5175 4.08635C14.6856 3.92338 14.7971 3.71091 14.8358 3.48002L14.8368 3.4849ZM6.92956 5.52459C6.47906 4.88597 6.10169 4.35459 6.05196 4.28439C6.28724 4.16599 6.47212 3.96697 6.57286 3.72362C6.6736 3.48027 6.68349 3.20882 6.60073 2.95878C6.51796 2.70875 6.34807 2.4968 6.12202 2.36159C5.89598 2.22639 5.62885 2.17694 5.36938 2.22227C5.10976 2.26448 4.87392 2.39848 4.70477 2.59988C4.53562 2.80128 4.4444 3.05671 4.4477 3.31969C4.45101 3.58267 4.54862 3.83572 4.72278 4.03281C4.89694 4.2299 5.13608 4.35792 5.39668 4.39359C5.29917 4.71437 5.18313 5.11217 5.05929 5.53532L6.38545 6.65754L6.92761 5.52459" fill="#1923FF"/>
</svg>
