<svg width="19" height="25" viewBox="0 0 19 25" fill="none" xmlns="http://www.w3.org/2000/svg">
<path d="M18.3238 9.2288C18.3238 4.28763 14.0885 0.405273 9.50029 0.405273C4.91205 0.405273 0.676758 4.28763 0.676758 9.2288C0.676758 16.9935 8.44146 24.4053 9.50029 24.4053C10.5591 24.4053 18.3238 17.3465 18.3238 9.2288Z" fill="white"/>
<path d="M13.6921 6.70733C13.8112 6.61739 13.9551 6.5691 14.1027 6.56948C14.2863 6.56948 14.4617 6.64505 14.5915 6.77901C14.7214 6.91297 14.7943 7.09466 14.7943 7.28411C14.7943 7.47355 14.7214 7.65524 14.5915 7.7892C14.4617 7.92316 14.2857 7.99842 14.1021 7.99842C14.0531 7.99843 14.0043 7.99302 13.9564 7.98227C13.9564 7.98227 13.5844 9.34753 13.3039 10.541C13.0975 11.4016 12.8621 12.8377 12.86 12.8427C12.6719 13.5259 11.0494 13.8228 9.50183 13.8169C7.95427 13.8228 6.33177 13.5259 6.14367 12.8427C6.14156 12.8377 5.87069 11.4016 5.6859 10.541C5.40841 9.34877 5.04726 7.98227 5.04726 7.98227C4.9994 7.99302 4.95056 7.99843 4.90159 7.99842C4.73532 7.99842 4.57456 7.93696 4.44843 7.82517C4.3223 7.71339 4.23914 7.55868 4.21403 7.38908C4.18892 7.21948 4.22352 7.0462 4.31156 6.90066C4.3996 6.75511 4.53524 6.64692 4.69393 6.5957C4.85261 6.54447 5.02382 6.5536 5.17654 6.62143C5.32926 6.68925 5.45339 6.81129 5.52642 6.96542C5.59945 7.11955 5.61656 7.29558 5.57465 7.46161C5.53274 7.62764 5.43458 7.77269 5.29796 7.87046C5.76054 8.27203 7.53322 9.81929 7.53322 9.81929C7.53322 9.81929 7.64729 9.94351 7.75533 9.9196C7.87211 9.89351 7.94976 9.69506 7.94976 9.69506C7.94976 9.69506 8.83429 7.78257 9.27701 6.85428C9.1062 6.79922 8.96019 6.68276 8.86551 6.52605C8.77084 6.36935 8.73378 6.18279 8.76106 6.00029C8.78835 5.81778 8.87817 5.65143 9.01421 5.53146C9.15025 5.41148 9.32348 5.34584 9.50243 5.34646C9.68205 5.34493 9.8562 5.41019 9.99302 5.53029C10.1298 5.65039 10.2202 5.81731 10.2475 6.00051C10.2748 6.18371 10.2373 6.37094 10.1418 6.52795C10.0464 6.68495 9.8993 6.80123 9.72755 6.85552C9.79497 6.99683 11.0548 9.6963 11.0548 9.6963C11.0548 9.6963 11.1325 9.89475 11.2492 9.92084C11.3573 9.94476 11.4713 9.82053 11.4713 9.82053C11.4713 9.82053 13.244 8.27203 13.706 7.87046C13.5848 7.78358 13.4937 7.65899 13.4459 7.51488C13.3982 7.37077 13.3963 7.21469 13.4406 7.06941C13.4849 6.92413 13.573 6.79726 13.6921 6.70733Z" fill="#1923FF"/>
</svg>
