<svg width="24" height="24" viewBox="0 0 24 24" fill="none" xmlns="http://www.w3.org/2000/svg">
<path d="M18 24H6C4.4087 24 2.88258 23.3679 1.75736 22.2426C0.632141 21.1174 0 19.5913 0 18V6C0 4.4087 0.632141 2.88258 1.75736 1.75736C2.88258 0.632141 4.4087 0 6 0H18C19.5913 0 21.1174 0.632141 22.2426 1.75736C23.3679 2.88258 24 4.4087 24 6V18C24 19.5913 23.3679 21.1174 22.2426 22.2426C21.1174 23.3679 19.5913 24 18 24V24ZM6 2.4C5.04563 2.40132 4.13072 2.78103 3.45588 3.45588C2.78103 4.13072 2.40132 5.04563 2.4 6V18C2.40132 18.9544 2.78103 19.8693 3.45588 20.5441C4.13072 21.219 5.04563 21.5987 6 21.6H18C18.9544 21.5987 19.8693 21.219 20.5441 20.5441C21.219 19.8693 21.5987 18.9544 21.6 18V6C21.5987 5.04563 21.219 4.13072 20.5441 3.45588C19.8693 2.78103 18.9544 2.40132 18 2.4H6Z" fill="white"/>
<path d="M12.0007 18.8C10.6558 18.8 9.34106 18.4011 8.22281 17.6539C7.10455 16.9068 6.23298 15.8447 5.71831 14.6022C5.20363 13.3597 5.06897 11.9924 5.33135 10.6733C5.59373 9.35427 6.24136 8.14263 7.19236 7.19163C8.14336 6.24063 9.355 5.59299 10.6741 5.33061C11.9931 5.06823 13.3604 5.2029 14.6029 5.71757C15.8455 6.23225 16.9075 7.10382 17.6547 8.22208C18.4019 9.34033 18.8007 10.655 18.8007 12C18.7994 13.803 18.0825 15.5319 16.8076 16.8068C15.5326 18.0818 13.8038 18.7986 12.0007 18.8V18.8ZM12.0007 7.59995C11.1304 7.59995 10.2798 7.85801 9.55618 8.34149C8.8326 8.82497 8.26864 9.51215 7.93562 10.3161C7.60259 11.1201 7.51546 12.0048 7.68523 12.8584C7.85501 13.7119 8.27407 14.4959 8.88942 15.1112C9.50477 15.7266 10.2888 16.1456 11.1423 16.3154C11.9958 16.4852 12.8805 16.398 13.6845 16.065C14.4885 15.732 15.1757 15.168 15.6592 14.4445C16.1426 13.7209 16.4007 12.8702 16.4007 12C16.3994 10.8334 15.9354 9.71502 15.1105 8.89015C14.2856 8.06527 13.1672 7.60128 12.0007 7.59995V7.59995Z" fill="white"/>
<path d="M18.8001 6.80015C19.4628 6.80015 20.0001 6.26289 20.0001 5.60015C20.0001 4.93741 19.4628 4.40015 18.8001 4.40015C18.1374 4.40015 17.6001 4.93741 17.6001 5.60015C17.6001 6.26289 18.1374 6.80015 18.8001 6.80015Z" fill="white"/>
</svg>
