<svg width="24" height="24" viewBox="0 0 24 24" fill="none" xmlns="http://www.w3.org/2000/svg">
<circle cx="11.5215" cy="12.0059" r="11.5215" fill="white"/>
<path d="M8.28927 7.15231C8.54701 6.12135 7.82773 5.24023 6.71885 5.24023C5.98759 5.24023 5.40617 5.59388 5.1784 6.17529C4.81277 7.10436 5.36422 8.06938 6.35322 8.22523C7.28228 8.38107 8.09147 7.93152 8.28927 7.15231Z" fill="#1923FF"/>
<path d="M12.6936 10.5646C12.7086 10.5496 12.7191 10.5391 12.7281 10.5271C13.4893 9.41222 14.5802 9.08854 15.8509 9.28035C17.3194 9.50812 18.2605 10.5331 18.5003 12.1035C18.5542 12.4751 18.5842 12.8527 18.5842 13.2244C18.5842 13.6155 18.5838 14.0067 18.5834 14.3978C18.5823 15.5709 18.5812 16.7445 18.5902 17.9176C18.5902 18.0915 18.5482 18.1454 18.3684 18.1454C17.5472 18.1334 16.726 18.1334 15.9109 18.1454C15.731 18.1454 15.6831 18.0975 15.6891 17.9176C15.6951 16.4551 15.6951 14.9986 15.6891 13.5361C15.6891 13.2064 15.6651 12.8767 15.5752 12.5531C15.2755 11.5221 14.1067 11.1625 13.2675 11.8458C12.818 12.2174 12.6382 12.7029 12.6442 13.2783C12.6482 14.1971 12.6468 15.1131 12.6455 16.0301C12.6448 16.489 12.6442 16.9484 12.6442 17.4082C12.6442 17.4595 12.6432 17.5109 12.6422 17.5623C12.6398 17.6907 12.6373 17.8192 12.6502 17.9476C12.6621 18.1035 12.5962 18.1334 12.4583 18.1334C11.6252 18.1274 10.786 18.1274 9.95287 18.1334C9.80302 18.1334 9.74907 18.1035 9.74907 17.9356C9.76106 16.6949 9.76706 15.4541 9.76706 14.2134C9.76706 12.685 9.76706 11.1564 9.75507 9.63399C9.75507 9.46616 9.79103 9.41821 9.95886 9.41821C10.792 9.4302 11.6312 9.4242 12.4643 9.41821C12.6142 9.41821 12.6561 9.46017 12.6502 9.61002C12.6303 9.88364 12.631 10.149 12.6318 10.4438C12.632 10.504 12.6322 10.566 12.6322 10.629C12.6591 10.599 12.6786 10.5795 12.6936 10.5646Z" fill="#1923FF"/>
<path d="M8.1443 13.7937C8.1443 15.1723 8.1443 16.5449 8.15029 17.9235C8.15029 18.0974 8.11433 18.1573 7.92852 18.1513C7.10135 18.1393 6.27419 18.1453 5.44702 18.1513C5.29118 18.1513 5.24323 18.1154 5.24323 17.9535C5.24323 15.1783 5.24323 12.4031 5.23723 9.62791C5.23723 9.48405 5.2732 9.4361 5.42304 9.4361C6.26819 9.44209 7.10735 9.44209 7.95249 9.4361C8.12032 9.4361 8.1443 9.49604 8.1443 9.64589V13.7937Z" fill="#1923FF"/>
</svg>
