<svg width="24" height="25" viewBox="0 0 24 25" fill="none" xmlns="http://www.w3.org/2000/svg">
<circle cx="11.5215" cy="12.5" r="11.5215" fill="white"/>
<path d="M8.28878 7.64694C8.54652 6.61598 7.82724 5.73486 6.71836 5.73486C5.9871 5.73486 5.40569 6.08851 5.17792 6.66992C4.81228 7.59898 5.36373 8.56401 6.35273 8.71985C7.28179 8.8757 8.09098 8.42615 8.28878 7.64694Z" fill="#1923FF"/>
<path d="M12.6931 11.0592C12.7081 11.0442 12.7186 11.0337 12.7276 11.0217C13.4888 9.90685 14.5797 9.58317 15.8504 9.77498C17.319 10.0027 18.26 11.0277 18.4998 12.5981C18.5537 12.9698 18.5837 13.3474 18.5837 13.719C18.5837 14.1102 18.5833 14.5013 18.5829 14.8924C18.5818 16.0656 18.5807 17.2392 18.5897 18.4123C18.5897 18.5861 18.5477 18.64 18.3679 18.64C17.5467 18.6281 16.7256 18.6281 15.9104 18.64C15.7306 18.64 15.6826 18.5921 15.6886 18.4123C15.6946 16.9497 15.6946 15.4932 15.6886 14.0307C15.6886 13.701 15.6646 13.3714 15.5747 13.0477C15.275 12.0167 14.1062 11.6571 13.267 12.3404C12.8175 12.712 12.6377 13.1975 12.6437 13.7729C12.6477 14.6917 12.6463 15.6078 12.645 16.5247C12.6443 16.9836 12.6437 17.443 12.6437 17.9028C12.6437 17.9542 12.6427 18.0055 12.6417 18.0569C12.6393 18.1854 12.6368 18.3138 12.6497 18.4422C12.6616 18.5981 12.5957 18.6281 12.4579 18.6281C11.6247 18.6221 10.7855 18.6221 9.95238 18.6281C9.80253 18.6281 9.74859 18.5981 9.74859 18.4303C9.76057 17.1895 9.76657 15.9488 9.76657 14.708C9.76657 13.1796 9.76657 11.651 9.75458 10.1286C9.75458 9.96079 9.79054 9.91284 9.95837 9.91284C10.7915 9.92483 11.6307 9.91883 12.4638 9.91284C12.6137 9.91284 12.6557 9.9548 12.6497 10.1046C12.6298 10.3783 12.6305 10.6436 12.6313 10.9384C12.6315 10.9987 12.6317 11.0606 12.6317 11.1236C12.6586 11.0937 12.6781 11.0742 12.6931 11.0592Z" fill="#1923FF"/>
<path d="M8.14381 14.2883C8.14381 15.6669 8.14381 17.0396 8.14981 18.4182C8.14981 18.592 8.11384 18.6519 7.92803 18.6459C7.10086 18.634 6.2737 18.6399 5.44653 18.6459C5.29069 18.6459 5.24274 18.61 5.24274 18.4481C5.24274 15.6729 5.24274 12.8977 5.23674 10.1225C5.23674 9.97868 5.27271 9.93073 5.42256 9.93073C6.2677 9.93672 7.10686 9.93672 7.95201 9.93073C8.11984 9.93073 8.14381 9.99067 8.14381 10.1405V14.2883Z" fill="#1923FF"/>
</svg>
