<svg width="204" height="57" viewBox="0 0 204 57" fill="none" xmlns="http://www.w3.org/2000/svg">
<path d="M125.721 16.5601C123.189 16.5601 120.908 17.3222 119.297 18.7095C117.624 20.1341 116.752 22.125 116.752 24.4453V39.3379C116.752 41.6227 117.561 43.5815 119.091 45.0044C120.691 46.4931 122.983 47.2802 125.721 47.2802C131.373 47.2802 134.749 44.3116 134.749 39.3379V24.4453C134.749 19.7298 131.121 16.5601 125.721 16.5601ZM128.453 38.0789C128.453 39.2881 128.453 41.8025 125.721 41.8025C122.988 41.8025 122.987 39.5623 122.987 38.0789V25.5904C122.987 23.2237 123.983 21.8668 125.723 21.8668C127.738 21.8668 128.455 23.79 128.455 25.5904L128.453 38.0789Z" fill="white"/>
<path d="M86.125 16.5605C82.9651 16.5605 82.9763 16.9167 82.9763 17.3227V38.4391C82.9763 38.9591 82.9763 40.8325 82.9763 41.2385C82.9763 41.6445 82.8034 42.2286 82.0692 42.2286H80.9539C80.2226 42.2335 79.508 42.02 78.9092 41.6178C78.5375 41.3934 77.5226 40.4176 77.5226 38.8897L77.5876 17.3227C77.5876 16.922 77.6248 16.5605 74.4388 16.5605C71.2529 16.5605 71.2901 16.9167 71.2901 17.3227L71.3124 39.3936C71.3124 41.7086 72.1637 43.7013 73.8292 45.1313C75.4407 46.5167 77.7215 47.2807 80.2513 47.2807C81.0635 47.287 81.8739 47.207 82.6677 47.0421L82.9874 46.969V48.0607C82.9688 49.9518 82.5041 50.5092 81.4149 50.9882H81.4056C81.022 51.1376 80.6114 51.2132 80.1974 51.2108H74.1005C73.6823 51.2108 73.3031 51.177 73.3031 54.101C73.3031 57.0251 73.6749 56.993 74.1005 56.993H80.5524C82.3759 56.993 83.9521 56.5995 85.2347 55.823H85.2458H85.257C87.7979 54.548 89.2682 52.1849 89.2682 49.1612V17.3227C89.2738 16.922 89.3091 16.5605 86.125 16.5605Z" fill="white"/>
<path d="M102.98 16.5601C100.451 16.5601 98.1699 17.3222 96.5584 18.7095C94.8854 20.1341 94.0137 22.1232 94.0137 24.4453V39.3379C94.0137 41.6209 94.8222 43.5815 96.352 45.0044C97.9524 46.4931 100.244 47.2802 102.98 47.2802C108.635 47.2802 112.012 44.3116 112.012 39.3379V24.4453C112.02 19.7298 108.382 16.5601 102.98 16.5601ZM105.715 38.0789C105.715 39.2881 105.715 41.8025 102.98 41.8025C100.246 41.8025 100.246 39.5623 100.246 38.0789V25.5904C100.246 23.2237 101.242 21.8668 102.98 21.8668C104.995 21.8668 105.715 23.79 105.715 25.5904V38.0789Z" fill="white"/>
<path d="M171.233 16.5605C168.704 16.5605 166.423 17.3227 164.811 18.7099C163.138 20.1346 162.267 22.9268 162.267 25.2507V38.5549C162.267 44.1269 165.776 47.2807 170.981 47.2807H177.416C177.841 47.2807 178.213 47.2967 178.213 44.3905C178.213 41.4843 177.841 41.5003 177.416 41.5003H171.785C169.533 41.5003 168.514 40.0205 168.514 38.2148V37.2211L168.886 37.2941C169.681 37.4525 170.49 37.5325 171.302 37.5327C173.832 37.5327 176.113 36.7688 177.724 35.3833C178.859 34.4133 179.658 33.1348 180.014 31.7185C180.18 30.8896 180.265 30.0479 180.269 29.204V24.4458C180.263 19.7303 176.635 16.5605 171.233 16.5605ZM174.046 28.8479C174.061 29.2896 173.981 29.7297 173.812 30.1409C173.643 30.5522 173.388 30.9259 173.063 31.2392C172.738 31.5525 172.349 31.7986 171.92 31.9625C171.492 32.1264 171.033 32.2046 170.572 32.1922H169.438C168.694 32.1922 168.521 31.6081 168.521 31.2021C168.521 30.7961 168.521 25.5036 168.521 25.3896C168.521 22.9891 169.523 21.8673 171.241 21.8673C171.694 21.8598 172.141 21.9743 172.53 22.1978C172.919 22.4213 173.235 22.7448 173.442 23.1316C173.857 23.8893 174.068 24.735 174.053 25.5909L174.046 28.8479Z" fill="white"/>
<path d="M193.97 16.5605C191.44 16.5605 189.159 17.3227 187.548 18.7099C185.884 20.1346 185.003 22.9268 185.003 25.2507V38.5549C185.003 44.1269 188.512 47.2807 193.719 47.2807H200.152C200.578 47.2807 200.949 47.2967 200.949 44.3905C200.949 41.4843 200.578 41.5003 200.152 41.5003H194.524C192.269 41.5003 191.252 40.0205 191.252 38.2148V37.2211L191.624 37.2941C192.419 37.4525 193.228 37.5325 194.04 37.5327C196.572 37.5327 198.853 36.7688 200.462 35.3833C201.597 34.4133 202.396 33.1348 202.752 31.7185C202.918 30.8896 203.003 30.0479 203.007 29.204V24.4458C203 19.7303 199.371 16.5605 193.97 16.5605ZM196.782 28.8479C196.796 29.2893 196.716 29.7289 196.547 30.1397C196.377 30.5504 196.122 30.9236 195.797 31.2363C195.471 31.5491 195.082 31.7947 194.654 31.9582C194.226 32.1216 193.767 32.1994 193.306 32.1868H192.17C191.427 32.1868 191.256 31.6027 191.256 31.1967C191.256 30.7907 191.256 25.4983 191.256 25.3843C191.256 22.9838 192.256 21.8619 193.973 21.8619C194.427 21.8544 194.874 21.969 195.263 22.1924C195.652 22.4159 195.967 22.7395 196.174 23.1263C196.59 23.8839 196.8 24.7296 196.786 25.5855L196.782 28.8479Z" fill="white"/>
<path d="M154.378 8.46143C151.218 8.46143 151.229 8.81758 151.229 9.22538C151.229 9.22538 151.229 14.3576 151.229 14.6817V16.8916L150.857 16.8186C150.062 16.6602 149.253 16.5802 148.441 16.58C145.909 16.58 143.629 17.3421 142.017 18.7276C140.344 20.1522 139.474 22.1431 139.474 24.4652V39.5537C139.474 41.8367 140.283 43.7973 141.811 45.2202C143.413 46.7089 145.703 47.4978 148.441 47.4978C154.095 47.4978 157.51 44.5274 157.51 39.5537V9.22538C157.527 8.82827 157.56 8.46143 154.378 8.46143ZM151.19 38.2947C151.19 39.5039 151.19 42.0183 148.458 42.0183C145.725 42.0183 145.723 39.7781 145.723 38.2947V25.6085C145.723 23.2436 146.72 21.8867 148.458 21.8867C150.473 21.8867 151.19 23.8099 151.19 25.6085V38.2947Z" fill="white"/>
<path d="M17.5284 15.5722C17.1827 16.6728 16.7626 18.0368 16.3202 19.4899L21.0657 23.3382L23.0081 19.4525C21.3928 17.2622 20.0452 15.4351 19.8686 15.2001C20.7096 14.794 21.3705 14.112 21.7307 13.2784C22.091 12.4448 22.1268 11.5149 21.8315 10.6581C21.5363 9.80132 20.9296 9.07463 20.1221 8.61036C19.3145 8.14609 18.3598 7.97513 17.4317 8.1286C16.5027 8.2737 15.6589 8.73347 15.0539 9.42428C14.4488 10.1151 14.1227 10.991 14.1348 11.8927C14.147 12.7944 14.4966 13.662 15.1201 14.3376C15.7436 15.0132 16.5995 15.452 17.5321 15.574L17.5284 15.5722Z" fill="white"/>
<path d="M44.3189 23.3362L49.1518 19.4185C48.7168 17.9939 48.306 16.6583 47.9677 15.5774C48.9044 15.4604 49.7658 15.0241 50.3942 14.3483C51.0225 13.6725 51.3756 12.8024 51.3889 11.8975C51.4022 10.9926 51.0748 10.1133 50.4667 9.42083C49.8585 8.72832 49.0103 8.26888 48.0774 8.12665C47.1493 7.97317 46.1946 8.14414 45.387 8.60841C44.5795 9.07268 43.9728 9.79937 43.6776 10.6562C43.3823 11.5129 43.4181 12.4428 43.7784 13.2764C44.1387 14.1101 44.7995 14.792 45.6405 15.1981C45.4546 15.4367 44.0735 17.319 42.4248 19.5557C43.1683 21.0497 43.8431 22.3906 44.3189 23.3362Z" fill="white"/>
<path d="M61.1225 8.00503C60.211 8.00279 59.3226 8.27973 58.587 8.79541C57.8514 9.31109 57.3071 10.0385 57.0335 10.8715C56.7599 11.7045 56.7714 12.5995 57.0663 13.4258C57.3612 14.2521 57.924 14.9665 58.6727 15.4647C55.8194 17.7672 44.8712 26.6462 44.8712 26.6462C44.8712 26.6462 44.1667 27.3585 43.4994 27.2214C42.7782 27.0718 42.2986 25.9339 42.2986 25.9339C42.2986 25.9339 34.5177 10.4554 34.1013 9.64512C35.1621 9.33385 36.0704 8.6671 36.6601 7.76686C37.2497 6.86661 37.4814 5.79306 37.3126 4.74261C37.1438 3.69216 36.5859 2.73505 35.7409 2.04639C34.8959 1.35773 33.8203 0.983559 32.711 0.992339C31.6057 0.988775 30.5358 1.36515 29.6956 2.05307C28.8555 2.741 28.3007 3.69484 28.1322 4.74131C27.9637 5.78778 28.1926 6.85745 28.7773 7.75598C29.362 8.65451 30.2638 9.32229 31.3187 9.638C28.5845 14.9607 23.1215 25.9267 23.1215 25.9267C23.1215 25.9267 22.6419 27.0647 21.9207 27.2142C21.2534 27.3514 20.5489 26.639 20.5489 26.639C20.5489 26.639 9.60067 17.7672 6.74371 15.4647C7.58751 14.9041 8.19376 14.0724 8.45261 13.1204C8.71145 12.1684 8.60577 11.159 8.15471 10.2753C7.70364 9.39149 6.93704 8.69175 5.99382 8.30285C5.0506 7.91395 3.99317 7.86162 3.01314 8.15533C2.03311 8.44905 1.19533 9.06939 0.651607 9.90393C0.107887 10.7385 -0.105798 11.732 0.0492757 12.7045C0.204349 13.677 0.71792 14.5641 1.49692 15.205C2.27593 15.846 3.26882 16.1984 4.29569 16.1984C4.59817 16.1985 4.89979 16.1674 5.19534 16.1058C5.19534 16.1058 7.42589 23.9412 9.13969 30.7776C10.281 35.7121 11.9539 43.9464 11.9669 43.9749C13.1286 47.8926 23.1494 49.595 32.7073 49.5612C42.2651 49.595 52.2859 47.8926 53.4476 43.9749C53.4606 43.9464 54.9142 35.7121 56.1893 30.7776C57.9217 23.934 60.2192 16.1058 60.2192 16.1058C60.5147 16.1674 60.8163 16.1985 61.1188 16.1984C62.2527 16.1984 63.3401 15.7668 64.1418 14.9987C64.9436 14.2306 65.394 13.1889 65.394 12.1026C65.394 11.0163 64.9436 9.97454 64.1418 9.20643C63.3401 8.43832 62.2527 8.00681 61.1188 8.00681L61.1225 8.00503ZM32.7091 47.5382C22.6531 47.5382 14.5023 45.6257 14.5023 43.2644C14.5023 40.903 22.6531 38.9905 32.7091 38.9905C42.7652 38.9905 50.9159 40.903 50.9159 43.2644C50.9159 45.6257 42.7652 47.5311 32.7091 47.5311V47.5382Z" fill="white"/>
</svg>
