<svg width="24" height="24" viewBox="0 0 24 24" fill="none" xmlns="http://www.w3.org/2000/svg">
<path d="M23.9988 4.37422C23.1 4.78173 22.1467 5.04936 21.1707 5.16826C22.1995 4.53765 22.9694 3.5452 23.3371 2.37584C22.3717 2.96474 21.3132 3.37744 20.21 3.60069C19.4689 2.78804 18.4867 2.24909 17.416 2.06762C16.3452 1.88615 15.246 2.07233 14.2892 2.59722C13.3323 3.12211 12.5715 3.9563 12.1249 4.9701C11.6784 5.9839 11.5711 7.12051 11.8199 8.20323C9.86198 8.10266 7.94662 7.58118 6.19814 6.67267C4.44966 5.76416 2.90714 4.48892 1.67072 2.92974C1.23307 3.70019 1.00309 4.57602 1.00432 5.46753C1.00432 7.21732 1.87323 8.76316 3.19427 9.66823C2.41249 9.643 1.64792 9.42661 0.964286 9.0371V9.09985C0.964522 10.2652 1.35797 11.3946 2.07792 12.2966C2.79787 13.1986 3.80002 13.8176 4.91444 14.0487C4.18871 14.2503 3.42776 14.28 2.68917 14.1356C3.00338 15.1387 3.61579 16.016 4.44065 16.6446C5.26551 17.2732 6.26153 17.6217 7.28925 17.6412C6.26783 18.4634 5.09832 19.0712 3.84758 19.4298C2.59684 19.7885 1.2894 19.8909 0 19.7313C2.25082 21.2149 4.87099 22.0026 7.5471 22C16.6048 22 21.5581 14.3094 21.5581 7.63968C21.5581 7.42247 21.5522 7.20284 21.5428 6.98804C22.5069 6.27384 23.339 5.38912 24 4.37543L23.9988 4.37422Z" fill="white"/>
</svg>
