<svg width="45" height="35" viewBox="0 0 45 35" fill="none" xmlns="http://www.w3.org/2000/svg">
<path d="M12.4936 11.2324C12.2733 12.0012 12.0061 12.9541 11.7248 13.9691L14.9777 16.5873L16.2429 13.8642C15.125 12.3612 14.1923 11.1074 14.0702 10.9461C14.6335 10.654 15.0717 10.1723 15.305 9.58876C15.5383 9.00521 15.5512 8.35859 15.3413 7.76668C15.1314 7.17477 14.7128 6.67693 14.1615 6.36382C13.6103 6.05072 12.9632 5.94317 12.338 6.06077V6.06077C11.7121 6.17256 11.1476 6.50201 10.7471 6.9892C10.3467 7.47639 10.137 8.08894 10.1562 8.71541C10.1753 9.34188 10.4221 9.94065 10.8515 10.4028C11.2809 10.8649 11.8645 11.1597 12.4961 11.2335L12.4936 11.2324Z" fill="white"/>
<path d="M30.6884 16.3108L33.9061 13.5313C33.5949 12.5465 33.3012 11.6232 33.0595 10.876C33.691 10.7837 34.2677 10.4703 34.684 9.99326C35.1003 9.51621 35.3283 8.90744 35.3264 8.27844C35.3244 7.64944 35.0925 7.0423 34.6732 6.56823C34.2539 6.09416 33.6753 5.78489 33.0432 5.69705V5.69705C32.4143 5.60135 31.7714 5.73141 31.2314 6.06357C30.6914 6.39572 30.2904 6.90787 30.1013 7.50674C29.9122 8.10562 29.9476 8.75139 30.2012 9.32645C30.4547 9.90151 30.9094 10.3676 31.4826 10.6399C31.3599 10.8079 30.4496 12.1322 29.3628 13.7059C29.8833 14.7354 30.3554 15.6593 30.6884 16.3108Z" fill="white"/>
<path d="M42.0669 5.79304C41.4509 5.79149 40.8506 5.98396 40.3535 6.34238C39.8564 6.70079 39.4886 7.20637 39.3038 7.78533C39.1189 8.36429 39.1267 8.98632 39.3259 9.56062C39.5252 10.1349 39.9055 10.6314 40.4114 10.9777C38.4834 12.578 31.0853 18.7491 31.0853 18.7491C31.0853 18.7491 30.6092 19.2442 30.1583 19.1489C29.671 19.0449 29.3469 18.254 29.3469 18.254C29.3469 18.254 24.0891 7.49609 23.8077 6.93294C24.5245 6.71661 25.1383 6.2532 25.5368 5.62751C25.9352 5.00181 26.0917 4.25567 25.9777 3.52558C25.8636 2.79549 25.4866 2.13028 24.9156 1.65164C24.3446 1.173 23.6178 0.912948 22.8682 0.91905V0.91905C22.1214 0.916574 21.3984 1.17816 20.8307 1.65629C20.2629 2.13441 19.888 2.79736 19.7742 3.52468C19.6603 4.252 19.815 4.99544 20.2101 5.61994C20.6052 6.24444 21.2146 6.70857 21.9274 6.92799C20.0798 10.6274 16.3883 18.2491 16.3883 18.2491C16.3883 18.2491 16.0642 19.0399 15.5769 19.1439C15.1259 19.2392 14.6499 18.7441 14.6499 18.7441C14.6499 18.7441 7.25178 12.578 5.32124 10.9777C5.89142 10.588 6.30109 10.01 6.476 9.34834C6.65091 8.68667 6.5795 7.98516 6.2747 7.37091C5.9699 6.75667 5.45188 6.27033 4.81451 6.00004C4.17715 5.72974 3.4626 5.69337 2.80036 5.89751C2.13813 6.10165 1.57201 6.5328 1.2046 7.11282C0.837185 7.69285 0.692791 8.38338 0.797579 9.05928C0.902368 9.73518 1.24941 10.3517 1.77581 10.7972C2.30221 11.2427 2.97314 11.4876 3.66703 11.4876C3.87142 11.4877 4.07524 11.4661 4.27495 11.4233C4.27495 11.4233 5.78221 16.8691 6.94028 21.6205C7.7115 25.0501 8.84194 30.7732 8.85073 30.793C9.63576 33.5159 16.4071 34.6991 22.8657 34.6756C29.3243 34.6991 36.0956 33.5159 36.8807 30.793C36.8895 30.7732 37.8717 25.0501 38.7333 21.6205C39.904 16.8641 41.4564 11.4233 41.4564 11.4233C41.6562 11.4661 41.86 11.4877 42.0644 11.4876C42.8306 11.4876 43.5654 11.1877 44.1071 10.6538C44.6489 10.12 44.9533 9.39593 44.9533 8.64095C44.9533 7.88596 44.6489 7.1619 44.1071 6.62805C43.5654 6.09419 42.8306 5.79428 42.0644 5.79428L42.0669 5.79304ZM22.867 33.2696C16.0717 33.2696 10.564 31.9403 10.564 30.2991C10.564 28.658 16.0717 27.3287 22.867 27.3287C29.6622 27.3287 35.1699 28.658 35.1699 30.2991C35.1699 31.9403 29.6622 33.2646 22.867 33.2646V33.2696Z" fill="white"/>
</svg>
