<svg width="28" height="20" viewBox="0 0 28 20" fill="none" xmlns="http://www.w3.org/2000/svg">
<path d="M27.1001 4.15403C27.1001 4.15403 26.8328 2.2668 26.0095 1.43814C24.967 0.347506 23.8015 0.342159 23.2669 0.278004C19.4389 -1.04308e-06 13.6917 0 13.6917 0H13.681C13.681 0 7.93383 -1.04308e-06 4.10591 0.278004C3.57129 0.342159 2.40581 0.347506 1.36329 1.43814C0.539971 2.2668 0.278005 4.15403 0.278005 4.15403C0.278005 4.15403 0 6.37272 0 8.58607V10.6604C0 12.8738 0.272658 15.0925 0.272658 15.0925C0.272658 15.0925 0.539971 16.9797 1.35794 17.8084C2.40046 18.899 3.7691 18.8616 4.37857 18.9792C6.57053 19.1877 13.6864 19.2519 13.6864 19.2519C13.6864 19.2519 19.4389 19.2412 23.2669 18.9685C23.8015 18.9044 24.967 18.899 26.0095 17.8084C26.8328 16.9797 27.1001 15.0925 27.1001 15.0925C27.1001 15.0925 27.3728 12.8791 27.3728 10.6604V8.58607C27.3728 6.37272 27.1001 4.15403 27.1001 4.15403ZM10.8582 13.1785V5.48524L18.2521 9.34523L10.8582 13.1785Z" fill="white"/>
</svg>
